<svg xmlns="http://www.w3.org/2000/svg" xmlns:xlink="http://www.w3.org/1999/xlink" width="500" zoomAndPan="magnify" viewBox="0 0 375 374.999991" height="500" preserveAspectRatio="xMidYMid meet" version="1.0"><defs><g/><clipPath id="ef2df18461"><path d="M 275.027344 156.136719 L 337.757812 156.136719 L 337.757812 218.863281 L 275.027344 218.863281 Z M 275.027344 156.136719 " clip-rule="nonzero"/></clipPath><clipPath id="c1cfd891b3"><path d="M 306.394531 156.136719 C 289.070312 156.136719 275.027344 170.179688 275.027344 187.5 C 275.027344 204.820312 289.070312 218.863281 306.394531 218.863281 C 323.714844 218.863281 337.757812 204.820312 337.757812 187.5 C 337.757812 170.179688 323.714844 156.136719 306.394531 156.136719 Z M 306.394531 156.136719 " clip-rule="nonzero"/></clipPath><clipPath id="72109d1519"><path d="M 225.902344 152.914062 L 295.078125 152.914062 L 295.078125 222.085938 L 225.902344 222.085938 Z M 225.902344 152.914062 " clip-rule="nonzero"/></clipPath><clipPath id="3dde1632c3"><path d="M 260.488281 152.914062 C 241.390625 152.914062 225.902344 168.398438 225.902344 187.5 C 225.902344 206.601562 241.390625 222.085938 260.488281 222.085938 C 279.589844 222.085938 295.078125 206.601562 295.078125 187.5 C 295.078125 168.398438 279.589844 152.914062 260.488281 152.914062 Z M 260.488281 152.914062 " clip-rule="nonzero"/></clipPath><clipPath id="2e376173a7"><path d="M 171.140625 147.832031 L 250.476562 147.832031 L 250.476562 227.167969 L 171.140625 227.167969 Z M 171.140625 147.832031 " clip-rule="nonzero"/></clipPath><clipPath id="b57da81aa0"><path d="M 210.808594 147.832031 C 188.902344 147.832031 171.140625 165.59375 171.140625 187.5 C 171.140625 209.40625 188.902344 227.167969 210.808594 227.167969 C 232.71875 227.167969 250.476562 209.40625 250.476562 187.5 C 250.476562 165.59375 232.71875 147.832031 210.808594 147.832031 Z M 210.808594 147.832031 " clip-rule="nonzero"/></clipPath><clipPath id="f056bf3876"><path d="M 37.5 144.636719 L 190.867188 144.636719 L 190.867188 230.363281 L 37.5 230.363281 Z M 37.5 144.636719 " clip-rule="nonzero"/></clipPath><clipPath id="5c6a385424"><path d="M 54.75 144.636719 L 173.425781 144.636719 C 182.953125 144.636719 190.675781 152.359375 190.675781 161.886719 L 190.675781 213.113281 C 190.675781 222.640625 182.953125 230.363281 173.425781 230.363281 L 54.75 230.363281 C 45.222656 230.363281 37.5 222.640625 37.5 213.113281 L 37.5 161.886719 C 37.5 152.359375 45.222656 144.636719 54.75 144.636719 Z M 54.75 144.636719 " clip-rule="nonzero"/></clipPath><clipPath id="c401ccdef2"><path d="M 86.992188 178 L 98 178 L 98 191 L 86.992188 191 Z M 86.992188 178 " clip-rule="nonzero"/></clipPath><clipPath id="c8a650df01"><path d="M 90 171.921875 L 104 171.921875 L 104 185 L 90 185 Z M 90 171.921875 " clip-rule="nonzero"/></clipPath><clipPath id="935da93ad9"><path d="M 106 182 L 116.074219 182 L 116.074219 195 L 106 195 Z M 106 182 " clip-rule="nonzero"/></clipPath><clipPath id="33352a189a"><path d="M 100 188 L 113 188 L 113 201.003906 L 100 201.003906 Z M 100 188 " clip-rule="nonzero"/></clipPath></defs><rect x="-37.5" width="450" fill="#ffffff" y="-37.499999" height="449.999989" fill-opacity="1"/><rect x="-37.5" width="450" fill="#ffffff" y="-37.499999" height="449.999989" fill-opacity="1"/><g clip-path="url(#ef2df18461)"><g clip-path="url(#c1cfd891b3)"><path fill="#38b6ff" d="M 275.027344 156.136719 L 337.757812 156.136719 L 337.757812 218.863281 L 275.027344 218.863281 Z M 275.027344 156.136719 " fill-opacity="1" fill-rule="nonzero"/></g></g><g clip-path="url(#72109d1519)"><g clip-path="url(#3dde1632c3)"><path fill="#38b6ff" d="M 225.902344 152.914062 L 295.078125 152.914062 L 295.078125 222.085938 L 225.902344 222.085938 Z M 225.902344 152.914062 " fill-opacity="1" fill-rule="nonzero"/></g></g><g clip-path="url(#2e376173a7)"><g clip-path="url(#b57da81aa0)"><path fill="#38b6ff" d="M 171.140625 147.832031 L 250.476562 147.832031 L 250.476562 227.167969 L 171.140625 227.167969 Z M 171.140625 147.832031 " fill-opacity="1" fill-rule="nonzero"/></g></g><g clip-path="url(#f056bf3876)"><g clip-path="url(#5c6a385424)"><path fill="#000000" d="M 37.5 144.636719 L 190.535156 144.636719 L 190.535156 230.363281 L 37.5 230.363281 Z M 37.5 144.636719 " fill-opacity="1" fill-rule="nonzero"/></g></g><g clip-path="url(#c401ccdef2)"><path fill="#ffb200" d="M 97.003906 190.84375 L 89.476562 178.355469 C 87.898438 180.6875 86.976562 183.5 86.976562 186.523438 C 86.976562 188.027344 87.203125 189.476562 87.628906 190.84375 Z M 97.003906 190.84375 " fill-opacity="1" fill-rule="nonzero"/></g><path fill="#ffb200" d="M 100.164062 180.324219 L 114.832031 180.324219 C 112.949219 176.320312 109.296875 173.304688 104.890625 172.285156 Z M 100.164062 180.324219 " fill-opacity="1" fill-rule="nonzero"/><g clip-path="url(#c8a650df01)"><path fill="#ffb200" d="M 95.457031 184.851562 L 103.023438 171.976562 C 102.554688 171.929688 102.078125 171.90625 101.597656 171.90625 C 97.238281 171.90625 93.320312 173.824219 90.640625 176.859375 Z M 95.457031 184.851562 " fill-opacity="1" fill-rule="nonzero"/></g><path fill="#ffb200" d="M 98.503906 200.683594 L 103.132812 192.609375 L 88.308594 192.609375 C 90.253906 196.839844 94.15625 199.984375 98.847656 200.882812 Z M 98.503906 200.683594 " fill-opacity="1" fill-rule="nonzero"/><g clip-path="url(#935da93ad9)"><path fill="#ffb200" d="M 106.167969 182.09375 L 113.558594 194.917969 C 115.230469 192.539062 116.214844 189.644531 116.214844 186.523438 C 116.214844 184.980469 115.972656 183.492188 115.527344 182.09375 Z M 106.167969 182.09375 " fill-opacity="1" fill-rule="nonzero"/></g><g clip-path="url(#33352a189a)"><path fill="#ffb200" d="M 107.671875 188.246094 L 100.3125 201.085938 C 100.734375 201.121094 101.164062 201.144531 101.597656 201.144531 C 105.855469 201.144531 109.695312 199.3125 112.371094 196.394531 Z M 107.671875 188.246094 " fill-opacity="1" fill-rule="nonzero"/></g><g fill="#38b6ff" fill-opacity="1"><g transform="translate(50.764038, 197.497716)"><g><path d="M 2.15625 -24.625 C 2.101562 -24.65625 2.128906 -24.679688 2.234375 -24.703125 C 2.378906 -24.722656 2.921875 -24.734375 3.859375 -24.734375 C 4.796875 -24.734375 6.144531 -24.734375 7.90625 -24.734375 C 11.882812 -24.734375 13.894531 -24.710938 13.9375 -24.671875 C 13.988281 -24.421875 14.242188 -23.210938 14.703125 -21.046875 C 14.703125 -21.015625 14.722656 -20.90625 14.765625 -20.71875 C 14.804688 -20.539062 14.847656 -20.34375 14.890625 -20.125 C 14.941406 -19.90625 14.984375 -19.691406 15.015625 -19.484375 C 15.054688 -19.273438 15.085938 -19.125 15.109375 -19.03125 C 15.503906 -17.269531 15.878906 -15.53125 16.234375 -13.8125 C 16.585938 -12.09375 16.929688 -10.351562 17.265625 -8.59375 C 17.367188 -7.9375 17.441406 -7.582031 17.484375 -7.53125 L 17.96875 -9.21875 C 18.0625 -9.582031 18.179688 -10.085938 18.328125 -10.734375 C 18.472656 -11.378906 18.644531 -12.164062 18.84375 -13.09375 C 19.039062 -13.726562 19.210938 -14.375 19.359375 -15.03125 C 19.503906 -15.695312 19.640625 -16.359375 19.765625 -17.015625 C 19.878906 -17.429688 19.988281 -17.867188 20.09375 -18.328125 C 20.1875 -18.691406 20.28125 -19.097656 20.375 -19.546875 C 20.476562 -20.003906 20.566406 -20.441406 20.640625 -20.859375 C 21.222656 -23.242188 21.515625 -24.453125 21.515625 -24.484375 L 21.59375 -24.734375 L 32.3125 -24.734375 L 32.3125 2.78125 L 25.171875 2.78125 L 25.171875 -19.390625 L 24.78125 -17.859375 C 24.039062 -14.984375 23.320312 -11.96875 22.625 -8.8125 C 21.9375 -5.664062 21.265625 -2.375 20.609375 1.0625 L 20.265625 2.78125 L 13.9375 2.78125 L 13.71875 1.53125 C 13.40625 -0.320312 13.113281 -2 12.84375 -3.5 C 12.570312 -5 12.328125 -6.332031 12.109375 -7.5 C 11.691406 -9.71875 11.347656 -11.519531 11.078125 -12.90625 C 10.816406 -14.300781 10.625 -15.316406 10.5 -15.953125 C 10.375 -16.585938 10.273438 -17.09375 10.203125 -17.46875 C 10.128906 -17.851562 10.082031 -18.101562 10.0625 -18.21875 C 10.0625 -18.320312 10.054688 -18.273438 10.046875 -18.078125 C 10.035156 -17.878906 10.03125 -17.378906 10.03125 -16.578125 C 10.050781 -16.179688 10.054688 -15.722656 10.046875 -15.203125 C 10.035156 -14.679688 10.03125 -14.101562 10.03125 -13.46875 C 10 -12.832031 9.984375 -12.050781 9.984375 -11.125 C 9.984375 -10.195312 9.984375 -9.132812 9.984375 -7.9375 L 9.984375 2.78125 L 2.703125 2.78125 L 2.703125 -10.6875 C 2.703125 -14.03125 2.703125 -16.675781 2.703125 -18.625 C 2.703125 -20.570312 2.691406 -21.84375 2.671875 -22.4375 C 2.617188 -23.601562 2.570312 -24.234375 2.53125 -24.328125 C 2.476562 -24.453125 2.351562 -24.550781 2.15625 -24.625 Z M 2.15625 -24.625 "/></g></g></g><g fill="#38b6ff" fill-opacity="1"><g transform="translate(85.812888, 197.497716)"><g/></g></g><g fill="#38b6ff" fill-opacity="1"><g transform="translate(93.129423, 197.497716)"><g/></g></g><g fill="#38b6ff" fill-opacity="1"><g transform="translate(100.445958, 197.497716)"><g/></g></g><g fill="#38b6ff" fill-opacity="1"><g transform="translate(107.762494, 197.497716)"><g/></g></g><g fill="#38b6ff" fill-opacity="1"><g transform="translate(115.081802, 197.497716)"><g><path d="M 0.578125 -24.546875 L 0.296875 -24.734375 L 8.75 -24.734375 L 8.78125 -24.515625 C 8.800781 -24.421875 8.820312 -24.328125 8.84375 -24.234375 C 8.875 -24.148438 8.898438 -24.070312 8.921875 -24 C 8.972656 -23.882812 9.101562 -23.421875 9.3125 -22.609375 C 9.519531 -21.804688 9.832031 -20.675781 10.25 -19.21875 C 10.289062 -19.09375 10.34375 -18.921875 10.40625 -18.703125 C 10.46875 -18.484375 10.550781 -18.203125 10.65625 -17.859375 C 10.75 -17.515625 10.828125 -17.21875 10.890625 -16.96875 C 10.953125 -16.726562 11.003906 -16.550781 11.046875 -16.4375 C 11.441406 -15.019531 11.765625 -13.851562 12.015625 -12.9375 C 12.273438 -12.019531 12.46875 -11.332031 12.59375 -10.875 C 12.632812 -10.75 12.6875 -10.566406 12.75 -10.328125 C 12.8125 -10.097656 12.890625 -9.816406 12.984375 -9.484375 C 13.085938 -9.140625 13.164062 -8.859375 13.21875 -8.640625 C 13.28125 -8.421875 13.328125 -8.25 13.359375 -8.125 C 13.523438 -7.5625 13.679688 -7.003906 13.828125 -6.453125 C 13.972656 -5.910156 14.117188 -5.359375 14.265625 -4.796875 C 14.367188 -4.546875 14.421875 -4.410156 14.421875 -4.390625 C 14.441406 -4.367188 14.515625 -4.566406 14.640625 -4.984375 C 14.929688 -6.078125 15.179688 -7.015625 15.390625 -7.796875 C 15.597656 -8.578125 15.757812 -9.234375 15.875 -9.765625 C 15.945312 -10.035156 16.023438 -10.328125 16.109375 -10.640625 C 16.203125 -10.960938 16.3125 -11.304688 16.4375 -11.671875 C 16.476562 -11.867188 16.546875 -12.148438 16.640625 -12.515625 C 16.742188 -12.878906 16.867188 -13.332031 17.015625 -13.875 C 17.140625 -14.332031 17.238281 -14.6875 17.3125 -14.9375 C 17.382812 -15.195312 17.429688 -15.363281 17.453125 -15.4375 C 17.597656 -15.976562 17.722656 -16.441406 17.828125 -16.828125 C 17.941406 -17.222656 18.050781 -17.554688 18.15625 -17.828125 C 18.6875 -19.722656 19.101562 -21.234375 19.40625 -22.359375 C 19.71875 -23.484375 19.921875 -24.210938 20.015625 -24.546875 L 20.09375 -24.703125 L 23.671875 -24.734375 C 26.066406 -24.691406 27.265625 -24.671875 27.265625 -24.671875 C 26.992188 -23.835938 26.71875 -22.960938 26.4375 -22.046875 C 26.15625 -21.128906 25.84375 -20.148438 25.5 -19.109375 C 25.132812 -17.984375 24.773438 -16.851562 24.421875 -15.71875 C 24.066406 -14.582031 23.722656 -13.429688 23.390625 -12.265625 C 22.609375 -9.890625 21.851562 -7.535156 21.125 -5.203125 C 20.40625 -2.878906 19.691406 -0.535156 18.984375 1.828125 L 18.703125 2.78125 L 10.203125 2.78125 L 9.921875 2.125 C 9.890625 1.875 9.707031 1.285156 9.375 0.359375 L 9.375 0.25 L 9.328125 0.21875 L 9.328125 0.140625 L 9.296875 0.078125 C 7.972656 -4.171875 6.765625 -8.050781 5.671875 -11.5625 C 5.015625 -13.632812 4.515625 -15.207031 4.171875 -16.28125 C 3.828125 -17.351562 3.644531 -17.941406 3.625 -18.046875 C 3.257812 -19.191406 2.929688 -20.25 2.640625 -21.21875 C 2.566406 -21.4375 2.460938 -21.710938 2.328125 -22.046875 C 2.191406 -22.378906 2.03125 -22.707031 1.84375 -23.03125 C 1.664062 -23.363281 1.46875 -23.671875 1.25 -23.953125 C 1.03125 -24.234375 0.804688 -24.429688 0.578125 -24.546875 Z M 0.578125 -24.546875 "/></g></g></g><g fill="#38b6ff" fill-opacity="1"><g transform="translate(143.030951, 197.497716)"><g><path d="M 2.375 -24.59375 L 2.078125 -24.734375 L 10.359375 -24.734375 L 10.359375 2.78125 L 2.921875 2.78125 L 2.921875 -23.890625 L 2.8125 -24.15625 C 2.71875 -24.34375 2.570312 -24.488281 2.375 -24.59375 Z M 2.375 -24.59375 "/></g></g></g><g fill="#38b6ff" fill-opacity="1"><g transform="translate(156.127533, 197.497716)"><g><path d="M 2.078125 -24.671875 C 2.742188 -24.671875 3.878906 -24.679688 5.484375 -24.703125 C 6.878906 -24.703125 8.863281 -24.707031 11.4375 -24.71875 C 14.007812 -24.726562 17.40625 -24.734375 21.625 -24.734375 L 21.625 -19.0625 L 10.0625 -19.0625 L 10.0625 -2.890625 L 22.6875 -2.890625 L 22.6875 -2.703125 C 22.6875 -2.734375 22.664062 -2.664062 22.625 -2.5 C 22.59375 -2.34375 22.546875 -2.128906 22.484375 -1.859375 C 22.421875 -1.597656 22.359375 -1.300781 22.296875 -0.96875 C 22.242188 -0.632812 22.179688 -0.3125 22.109375 0 C 21.734375 1.726562 21.535156 2.617188 21.515625 2.671875 C 21.492188 2.742188 18.375 2.78125 12.15625 2.78125 L 2.859375 2.78125 L 2.859375 -10.5 C 2.859375 -14.96875 2.847656 -18.28125 2.828125 -20.4375 C 2.816406 -22.59375 2.789062 -23.757812 2.75 -23.9375 C 2.675781 -24.300781 2.453125 -24.546875 2.078125 -24.671875 Z M 11.265625 -13.984375 L 21.046875 -13.984375 L 21.046875 -8.375 L 11.265625 -8.375 Z M 11.265625 -13.984375 "/></g></g></g><g fill="#38b6ff" fill-opacity="1"><g transform="translate(180.052827, 197.497716)"><g/></g></g><g fill="#38b6ff" fill-opacity="1"><g transform="translate(187.369363, 197.497716)"><g/></g></g><g fill="#ffffff" fill-opacity="1"><g transform="translate(194.694385, 197.497716)"><g><path d="M 2.15625 -24.625 C 2.101562 -24.65625 2.128906 -24.679688 2.234375 -24.703125 C 2.378906 -24.722656 2.921875 -24.734375 3.859375 -24.734375 C 4.796875 -24.734375 6.144531 -24.734375 7.90625 -24.734375 C 11.882812 -24.734375 13.894531 -24.710938 13.9375 -24.671875 C 13.988281 -24.421875 14.242188 -23.210938 14.703125 -21.046875 C 14.703125 -21.015625 14.722656 -20.90625 14.765625 -20.71875 C 14.804688 -20.539062 14.847656 -20.34375 14.890625 -20.125 C 14.941406 -19.90625 14.984375 -19.691406 15.015625 -19.484375 C 15.054688 -19.273438 15.085938 -19.125 15.109375 -19.03125 C 15.503906 -17.269531 15.878906 -15.53125 16.234375 -13.8125 C 16.585938 -12.09375 16.929688 -10.351562 17.265625 -8.59375 C 17.367188 -7.9375 17.441406 -7.582031 17.484375 -7.53125 L 17.96875 -9.21875 C 18.0625 -9.582031 18.179688 -10.085938 18.328125 -10.734375 C 18.472656 -11.378906 18.644531 -12.164062 18.84375 -13.09375 C 19.039062 -13.726562 19.210938 -14.375 19.359375 -15.03125 C 19.503906 -15.695312 19.640625 -16.359375 19.765625 -17.015625 C 19.878906 -17.429688 19.988281 -17.867188 20.09375 -18.328125 C 20.1875 -18.691406 20.28125 -19.097656 20.375 -19.546875 C 20.476562 -20.003906 20.566406 -20.441406 20.640625 -20.859375 C 21.222656 -23.242188 21.515625 -24.453125 21.515625 -24.484375 L 21.59375 -24.734375 L 32.3125 -24.734375 L 32.3125 2.78125 L 25.171875 2.78125 L 25.171875 -19.390625 L 24.78125 -17.859375 C 24.039062 -14.984375 23.320312 -11.96875 22.625 -8.8125 C 21.9375 -5.664062 21.265625 -2.375 20.609375 1.0625 L 20.265625 2.78125 L 13.9375 2.78125 L 13.71875 1.53125 C 13.40625 -0.320312 13.113281 -2 12.84375 -3.5 C 12.570312 -5 12.328125 -6.332031 12.109375 -7.5 C 11.691406 -9.71875 11.347656 -11.519531 11.078125 -12.90625 C 10.816406 -14.300781 10.625 -15.316406 10.5 -15.953125 C 10.375 -16.585938 10.273438 -17.09375 10.203125 -17.46875 C 10.128906 -17.851562 10.082031 -18.101562 10.0625 -18.21875 C 10.0625 -18.320312 10.054688 -18.273438 10.046875 -18.078125 C 10.035156 -17.878906 10.03125 -17.378906 10.03125 -16.578125 C 10.050781 -16.179688 10.054688 -15.722656 10.046875 -15.203125 C 10.035156 -14.679688 10.03125 -14.101562 10.03125 -13.46875 C 10 -12.832031 9.984375 -12.050781 9.984375 -11.125 C 9.984375 -10.195312 9.984375 -9.132812 9.984375 -7.9375 L 9.984375 2.78125 L 2.703125 2.78125 L 2.703125 -10.6875 C 2.703125 -14.03125 2.703125 -16.675781 2.703125 -18.625 C 2.703125 -20.570312 2.691406 -21.84375 2.671875 -22.4375 C 2.617188 -23.601562 2.570312 -24.234375 2.53125 -24.328125 C 2.476562 -24.453125 2.351562 -24.550781 2.15625 -24.625 Z M 2.15625 -24.625 "/></g></g></g><g fill="#ffffff" fill-opacity="1"><g transform="translate(229.740559, 197.497716)"><g><path d="M 7.390625 -24.625 C 7.316406 -24.65625 7.34375 -24.679688 7.46875 -24.703125 C 7.632812 -24.722656 8.148438 -24.734375 9.015625 -24.734375 C 9.878906 -24.734375 11.035156 -24.734375 12.484375 -24.734375 L 17.96875 -24.734375 L 18.21875 -24 C 18.34375 -23.488281 18.5625 -22.722656 18.875 -21.703125 C 19.070312 -21.066406 19.234375 -20.53125 19.359375 -20.09375 C 19.484375 -19.65625 19.566406 -19.3125 19.609375 -19.0625 C 19.640625 -18.914062 19.820312 -18.28125 20.15625 -17.15625 C 20.5 -16.0625 20.757812 -15.1875 20.9375 -14.53125 C 21.195312 -13.625 21.445312 -12.742188 21.6875 -11.890625 C 21.9375 -11.035156 22.1875 -10.21875 22.4375 -9.4375 C 22.476562 -9.269531 22.535156 -9.054688 22.609375 -8.796875 C 22.679688 -8.546875 22.78125 -8.25 22.90625 -7.90625 C 23 -7.5625 23.070312 -7.285156 23.125 -7.078125 C 23.175781 -6.867188 23.210938 -6.726562 23.234375 -6.65625 C 23.265625 -6.613281 23.296875 -6.503906 23.328125 -6.328125 C 23.367188 -6.160156 23.4375 -5.941406 23.53125 -5.671875 C 23.726562 -5.109375 23.835938 -4.71875 23.859375 -4.5 C 23.878906 -4.425781 23.914062 -4.289062 23.96875 -4.09375 C 24.019531 -3.90625 24.070312 -3.707031 24.125 -3.5 C 24.1875 -3.289062 24.25 -3.097656 24.3125 -2.921875 C 24.375 -2.753906 24.40625 -2.644531 24.40625 -2.59375 C 24.425781 -2.570312 24.515625 -2.289062 24.671875 -1.75 C 24.691406 -1.65625 24.742188 -1.453125 24.828125 -1.140625 C 24.910156 -0.835938 25 -0.535156 25.09375 -0.234375 C 25.195312 0.0664062 25.285156 0.34375 25.359375 0.59375 C 25.429688 0.851562 25.476562 1 25.5 1.03125 C 25.5 1.125 25.535156 1.289062 25.609375 1.53125 C 25.679688 1.78125 25.742188 1.941406 25.796875 2.015625 C 25.816406 2.160156 25.835938 2.285156 25.859375 2.390625 C 25.890625 2.503906 25.914062 2.597656 25.9375 2.671875 C 25.96875 2.691406 25.929688 2.71875 25.828125 2.75 C 25.734375 2.769531 25.398438 2.78125 24.828125 2.78125 C 24.253906 2.78125 23.492188 2.78125 22.546875 2.78125 L 18.765625 2.78125 L 18.625 2.34375 C 18.570312 2.21875 18.519531 2.0625 18.46875 1.875 C 18.425781 1.695312 18.378906 1.488281 18.328125 1.25 C 18.328125 1.195312 18.300781 1.082031 18.25 0.90625 C 18.207031 0.738281 18.148438 0.519531 18.078125 0.25 C 17.984375 -0.0078125 17.90625 -0.253906 17.84375 -0.484375 C 17.78125 -0.722656 17.722656 -0.941406 17.671875 -1.140625 L 17.234375 -2.890625 L 8.96875 -2.890625 L 8.890625 -2.640625 C 8.671875 -1.859375 8.46875 -1.113281 8.28125 -0.40625 C 8.101562 0.300781 7.941406 0.960938 7.796875 1.578125 L 7.46875 2.78125 L 3.734375 2.78125 C 2.753906 2.757812 1.976562 2.738281 1.40625 2.71875 C 0.832031 2.707031 0.546875 2.691406 0.546875 2.671875 C 1.253906 0.453125 1.925781 -1.769531 2.5625 -4 C 3.195312 -6.238281 3.816406 -8.492188 4.421875 -10.765625 C 4.421875 -10.804688 4.46875 -10.988281 4.5625 -11.3125 C 4.664062 -11.644531 4.742188 -11.910156 4.796875 -12.109375 C 4.921875 -12.472656 5.03125 -12.835938 5.125 -13.203125 C 5.21875 -13.578125 5.316406 -13.957031 5.421875 -14.34375 C 5.515625 -14.6875 5.613281 -15.0625 5.71875 -15.46875 C 5.832031 -15.882812 5.960938 -16.335938 6.109375 -16.828125 C 6.128906 -16.898438 6.164062 -17.039062 6.21875 -17.25 C 6.269531 -17.457031 6.328125 -17.675781 6.390625 -17.90625 C 6.453125 -18.144531 6.507812 -18.363281 6.5625 -18.5625 C 6.625 -18.769531 6.65625 -18.898438 6.65625 -18.953125 C 6.707031 -19.078125 6.753906 -19.222656 6.796875 -19.390625 C 6.847656 -19.566406 6.910156 -19.773438 6.984375 -20.015625 C 7.109375 -20.503906 7.179688 -20.785156 7.203125 -20.859375 C 7.253906 -20.984375 7.3125 -21.191406 7.375 -21.484375 C 7.4375 -21.773438 7.523438 -22.140625 7.640625 -22.578125 C 7.835938 -23.160156 7.9375 -23.523438 7.9375 -23.671875 C 7.9375 -24.109375 7.753906 -24.425781 7.390625 -24.625 Z M 13.578125 -16.765625 C 13.285156 -17.929688 13.113281 -18.515625 13.0625 -18.515625 C 13.007812 -18.367188 12.898438 -17.90625 12.734375 -17.125 C 12.679688 -16.925781 12.617188 -16.660156 12.546875 -16.328125 C 12.472656 -16.003906 12.378906 -15.597656 12.265625 -15.109375 C 12.210938 -14.960938 12.125 -14.617188 12 -14.078125 C 11.875 -13.546875 11.738281 -12.988281 11.59375 -12.40625 C 11.40625 -11.71875 11.210938 -10.972656 11.015625 -10.171875 C 10.773438 -9.191406 10.65625 -8.664062 10.65625 -8.59375 C 10.65625 -8.550781 11.492188 -8.53125 13.171875 -8.53125 L 15.703125 -8.53125 L 15.625 -8.890625 C 15.425781 -9.671875 15.15625 -10.710938 14.8125 -12.015625 C 14.476562 -13.328125 14.066406 -14.910156 13.578125 -16.765625 Z M 13.578125 -16.765625 "/></g></g></g><g fill="#ffffff" fill-opacity="1"><g transform="translate(256.262975, 197.497716)"><g><path d="M 2.078125 -24.734375 L 10.140625 -24.734375 L 10.140625 2.78125 L 2.703125 2.78125 L 2.703125 -12.734375 C 2.703125 -15.609375 2.703125 -17.878906 2.703125 -19.546875 C 2.703125 -21.222656 2.691406 -22.304688 2.671875 -22.796875 C 2.648438 -23.742188 2.578125 -24.28125 2.453125 -24.40625 L 2.375 -24.484375 C 2.332031 -24.523438 2.285156 -24.570312 2.234375 -24.625 C 2.179688 -24.675781 2.128906 -24.710938 2.078125 -24.734375 Z M 11.09375 -24.734375 L 12.328125 -24.734375 L 12.921875 -23.34375 C 13.035156 -23.101562 13.21875 -22.675781 13.46875 -22.0625 C 13.6875 -21.476562 13.832031 -21.113281 13.90625 -20.96875 C 14.320312 -19.96875 14.789062 -18.8125 15.3125 -17.5 C 15.832031 -16.195312 16.410156 -14.71875 17.046875 -13.0625 C 18.335938 -9.769531 19.144531 -7.613281 19.46875 -6.59375 L 19.609375 -6.21875 L 19.65625 -8.34375 L 19.65625 -17.265625 C 19.601562 -21.878906 19.550781 -24.234375 19.5 -24.328125 C 19.425781 -24.453125 19.28125 -24.585938 19.0625 -24.734375 L 26.859375 -24.734375 L 26.859375 2.78125 L 17.484375 2.78125 L 16.359375 -0.109375 C 15.503906 -2.273438 14.664062 -4.328125 13.84375 -6.265625 C 13.03125 -8.210938 12.242188 -10.0625 11.484375 -11.8125 L 11.09375 -12.765625 Z M 11.09375 -24.734375 "/></g></g></g><g fill="#ffffff" fill-opacity="1"><g transform="translate(285.858339, 197.497716)"><g><path d="M 2.375 -24.59375 L 2.078125 -24.734375 L 10.359375 -24.734375 L 10.359375 2.78125 L 2.921875 2.78125 L 2.921875 -23.890625 L 2.8125 -24.15625 C 2.71875 -24.34375 2.570312 -24.488281 2.375 -24.59375 Z M 2.375 -24.59375 "/></g></g></g><g fill="#ffffff" fill-opacity="1"><g transform="translate(298.954921, 197.497716)"><g><path d="M 7.390625 -24.625 C 7.316406 -24.65625 7.34375 -24.679688 7.46875 -24.703125 C 7.632812 -24.722656 8.148438 -24.734375 9.015625 -24.734375 C 9.878906 -24.734375 11.035156 -24.734375 12.484375 -24.734375 L 17.96875 -24.734375 L 18.21875 -24 C 18.34375 -23.488281 18.5625 -22.722656 18.875 -21.703125 C 19.070312 -21.066406 19.234375 -20.53125 19.359375 -20.09375 C 19.484375 -19.65625 19.566406 -19.3125 19.609375 -19.0625 C 19.640625 -18.914062 19.820312 -18.28125 20.15625 -17.15625 C 20.5 -16.0625 20.757812 -15.1875 20.9375 -14.53125 C 21.195312 -13.625 21.445312 -12.742188 21.6875 -11.890625 C 21.9375 -11.035156 22.1875 -10.21875 22.4375 -9.4375 C 22.476562 -9.269531 22.535156 -9.054688 22.609375 -8.796875 C 22.679688 -8.546875 22.78125 -8.25 22.90625 -7.90625 C 23 -7.5625 23.070312 -7.285156 23.125 -7.078125 C 23.175781 -6.867188 23.210938 -6.726562 23.234375 -6.65625 C 23.265625 -6.613281 23.296875 -6.503906 23.328125 -6.328125 C 23.367188 -6.160156 23.4375 -5.941406 23.53125 -5.671875 C 23.726562 -5.109375 23.835938 -4.71875 23.859375 -4.5 C 23.878906 -4.425781 23.914062 -4.289062 23.96875 -4.09375 C 24.019531 -3.90625 24.070312 -3.707031 24.125 -3.5 C 24.1875 -3.289062 24.25 -3.097656 24.3125 -2.921875 C 24.375 -2.753906 24.40625 -2.644531 24.40625 -2.59375 C 24.425781 -2.570312 24.515625 -2.289062 24.671875 -1.75 C 24.691406 -1.65625 24.742188 -1.453125 24.828125 -1.140625 C 24.910156 -0.835938 25 -0.535156 25.09375 -0.234375 C 25.195312 0.0664062 25.285156 0.34375 25.359375 0.59375 C 25.429688 0.851562 25.476562 1 25.5 1.03125 C 25.5 1.125 25.535156 1.289062 25.609375 1.53125 C 25.679688 1.78125 25.742188 1.941406 25.796875 2.015625 C 25.816406 2.160156 25.835938 2.285156 25.859375 2.390625 C 25.890625 2.503906 25.914062 2.597656 25.9375 2.671875 C 25.96875 2.691406 25.929688 2.71875 25.828125 2.75 C 25.734375 2.769531 25.398438 2.78125 24.828125 2.78125 C 24.253906 2.78125 23.492188 2.78125 22.546875 2.78125 L 18.765625 2.78125 L 18.625 2.34375 C 18.570312 2.21875 18.519531 2.0625 18.46875 1.875 C 18.425781 1.695312 18.378906 1.488281 18.328125 1.25 C 18.328125 1.195312 18.300781 1.082031 18.25 0.90625 C 18.207031 0.738281 18.148438 0.519531 18.078125 0.25 C 17.984375 -0.0078125 17.90625 -0.253906 17.84375 -0.484375 C 17.78125 -0.722656 17.722656 -0.941406 17.671875 -1.140625 L 17.234375 -2.890625 L 8.96875 -2.890625 L 8.890625 -2.640625 C 8.671875 -1.859375 8.46875 -1.113281 8.28125 -0.40625 C 8.101562 0.300781 7.941406 0.960938 7.796875 1.578125 L 7.46875 2.78125 L 3.734375 2.78125 C 2.753906 2.757812 1.976562 2.738281 1.40625 2.71875 C 0.832031 2.707031 0.546875 2.691406 0.546875 2.671875 C 1.253906 0.453125 1.925781 -1.769531 2.5625 -4 C 3.195312 -6.238281 3.816406 -8.492188 4.421875 -10.765625 C 4.421875 -10.804688 4.46875 -10.988281 4.5625 -11.3125 C 4.664062 -11.644531 4.742188 -11.910156 4.796875 -12.109375 C 4.921875 -12.472656 5.03125 -12.835938 5.125 -13.203125 C 5.21875 -13.578125 5.316406 -13.957031 5.421875 -14.34375 C 5.515625 -14.6875 5.613281 -15.0625 5.71875 -15.46875 C 5.832031 -15.882812 5.960938 -16.335938 6.109375 -16.828125 C 6.128906 -16.898438 6.164062 -17.039062 6.21875 -17.25 C 6.269531 -17.457031 6.328125 -17.675781 6.390625 -17.90625 C 6.453125 -18.144531 6.507812 -18.363281 6.5625 -18.5625 C 6.625 -18.769531 6.65625 -18.898438 6.65625 -18.953125 C 6.707031 -19.078125 6.753906 -19.222656 6.796875 -19.390625 C 6.847656 -19.566406 6.910156 -19.773438 6.984375 -20.015625 C 7.109375 -20.503906 7.179688 -20.785156 7.203125 -20.859375 C 7.253906 -20.984375 7.3125 -21.191406 7.375 -21.484375 C 7.4375 -21.773438 7.523438 -22.140625 7.640625 -22.578125 C 7.835938 -23.160156 7.9375 -23.523438 7.9375 -23.671875 C 7.9375 -24.109375 7.753906 -24.425781 7.390625 -24.625 Z M 13.578125 -16.765625 C 13.285156 -17.929688 13.113281 -18.515625 13.0625 -18.515625 C 13.007812 -18.367188 12.898438 -17.90625 12.734375 -17.125 C 12.679688 -16.925781 12.617188 -16.660156 12.546875 -16.328125 C 12.472656 -16.003906 12.378906 -15.597656 12.265625 -15.109375 C 12.210938 -14.960938 12.125 -14.617188 12 -14.078125 C 11.875 -13.546875 11.738281 -12.988281 11.59375 -12.40625 C 11.40625 -11.71875 11.210938 -10.972656 11.015625 -10.171875 C 10.773438 -9.191406 10.65625 -8.664062 10.65625 -8.59375 C 10.65625 -8.550781 11.492188 -8.53125 13.171875 -8.53125 L 15.703125 -8.53125 L 15.625 -8.890625 C 15.425781 -9.671875 15.15625 -10.710938 14.8125 -12.015625 C 14.476562 -13.328125 14.066406 -14.910156 13.578125 -16.765625 Z M 13.578125 -16.765625 "/></g></g></g></svg>