<svg xmlns="http://www.w3.org/2000/svg" xmlns:xlink="http://www.w3.org/1999/xlink" width="500" zoomAndPan="magnify" viewBox="0 0 375 374.999991" height="500" preserveAspectRatio="xMidYMid meet" version="1.0"><defs><clipPath id="feb3d7864e"><path d="M 160.519531 161.597656 L 196.160156 161.597656 L 196.160156 197.238281 L 160.519531 197.238281 Z M 160.519531 161.597656 " clip-rule="nonzero"/></clipPath><clipPath id="4c47970b0b"><path d="M 178.339844 161.597656 C 168.496094 161.597656 160.519531 169.574219 160.519531 179.417969 C 160.519531 189.261719 168.496094 197.238281 178.339844 197.238281 C 188.183594 197.238281 196.160156 189.261719 196.160156 179.417969 C 196.160156 169.574219 188.183594 161.597656 178.339844 161.597656 Z M 178.339844 161.597656 " clip-rule="nonzero"/></clipPath><clipPath id="aba313ae1f"><path d="M 168.847656 168.847656 L 206.347656 168.847656 L 206.347656 206.347656 L 168.847656 206.347656 Z M 168.847656 168.847656 " clip-rule="nonzero"/></clipPath></defs><rect x="-37.5" width="450" fill="#ffffff" y="-37.499999" height="449.999989" fill-opacity="1"/><rect x="-37.5" width="450" fill="#ffffff" y="-37.499999" height="449.999989" fill-opacity="1"/><g clip-path="url(#feb3d7864e)"><g clip-path="url(#4c47970b0b)"><path fill="#ffffff" d="M 160.519531 161.597656 L 196.160156 161.597656 L 196.160156 197.238281 L 160.519531 197.238281 Z M 160.519531 161.597656 " fill-opacity="1" fill-rule="nonzero"/></g></g><g clip-path="url(#aba313ae1f)"><path fill="#0097b2" d="M 202.011719 195.878906 C 200.9375 197.734375 198.78125 198.570312 196.804688 198.046875 L 191.382812 203.46875 L 190.796875 202.882812 C 189.957031 203.730469 188.785156 204.257812 187.496094 204.257812 C 184.929688 204.257812 182.847656 202.175781 182.847656 199.613281 C 182.847656 197.65625 184.058594 195.980469 185.773438 195.296875 L 184.074219 193.601562 L 182.792969 194.882812 L 181.648438 193.730469 C 181.585938 195.273438 180.761719 196.75 179.328125 197.578125 C 177.105469 198.859375 174.261719 198.097656 172.980469 195.878906 C 171.699219 193.65625 172.457031 190.8125 174.679688 189.53125 C 176.597656 188.425781 178.980469 188.839844 180.417969 190.402344 L 193.796875 177.023438 L 194.816406 178.042969 C 195.070312 177.808594 195.351562 177.59375 195.664062 177.414062 C 197.886719 176.132812 200.726562 176.894531 202.011719 179.117188 C 203.292969 181.339844 202.535156 184.183594 200.3125 185.464844 C 200.175781 185.542969 200.03125 185.617188 199.890625 185.679688 L 201.101562 186.894531 L 202.382812 185.613281 L 202.972656 186.203125 L 203.503906 186.730469 L 204.09375 187.320312 L 204.273438 187.503906 L 205.8125 189.042969 L 202.480469 192.371094 C 202.78125 193.515625 202.648438 194.773438 202.011719 195.878906 Z M 172.980469 179.117188 C 174.261719 176.894531 177.105469 176.132812 179.328125 177.414062 C 181.550781 178.699219 182.308594 181.539062 181.03125 183.761719 C 179.746094 185.988281 176.90625 186.746094 174.679688 185.464844 C 172.457031 184.183594 171.699219 181.339844 172.980469 179.117188 Z M 187.496094 170.738281 C 190.0625 170.738281 192.144531 172.816406 192.144531 175.382812 C 192.144531 177.945312 190.0625 180.03125 187.496094 180.03125 C 184.929688 180.03125 182.847656 177.945312 182.847656 175.382812 C 182.847656 172.816406 184.929688 170.738281 187.496094 170.738281 Z M 187.496094 168.847656 C 177.195312 168.847656 168.847656 177.195312 168.847656 187.496094 C 168.847656 197.796875 177.195312 206.144531 187.496094 206.144531 C 197.796875 206.144531 206.144531 197.796875 206.144531 187.496094 C 206.144531 177.195312 197.796875 168.847656 187.496094 168.847656 " fill-opacity="1" fill-rule="nonzero"/></g><path fill="#0097b2" d="M 202.722656 190.230469 L 202.046875 190.910156 C 202.015625 190.941406 201.976562 190.953125 201.9375 190.953125 C 201.898438 190.953125 201.855469 190.941406 201.824219 190.90625 L 201.765625 190.847656 L 200.695312 189.78125 L 200.6875 189.769531 C 200.625 189.707031 200.625 189.609375 200.683594 189.550781 L 201.363281 188.871094 C 201.394531 188.839844 201.433594 188.828125 201.472656 188.828125 C 201.511719 188.828125 201.554688 188.839844 201.582031 188.875 L 202.722656 190.011719 C 202.78125 190.074219 202.785156 190.171875 202.722656 190.230469 Z M 200.828125 192.125 L 200.152344 192.804688 C 200.121094 192.835938 200.082031 192.847656 200.042969 192.847656 C 200.003906 192.847656 199.960938 192.832031 199.933594 192.800781 L 198.792969 191.664062 C 198.730469 191.601562 198.730469 191.503906 198.789062 191.445312 L 199.46875 190.765625 C 199.5 190.734375 199.539062 190.71875 199.578125 190.71875 C 199.617188 190.71875 199.660156 190.734375 199.6875 190.765625 L 200.828125 191.90625 C 200.886719 191.96875 200.890625 192.066406 200.828125 192.125 Z M 198.9375 194.019531 L 198.257812 194.699219 C 198.226562 194.730469 198.1875 194.742188 198.148438 194.742188 C 198.109375 194.742188 198.066406 194.726562 198.035156 194.699219 L 196.898438 193.558594 C 196.835938 193.496094 196.835938 193.398438 196.898438 193.339844 L 197.578125 192.660156 C 197.605469 192.628906 197.644531 192.613281 197.683594 192.613281 C 197.722656 192.613281 197.761719 192.632812 197.796875 192.660156 L 198.933594 193.800781 C 198.996094 193.863281 198.996094 193.960938 198.9375 194.019531 Z M 197.042969 195.914062 L 196.363281 196.59375 C 196.335938 196.621094 196.292969 196.636719 196.257812 196.636719 C 196.214844 196.636719 196.171875 196.621094 196.140625 196.589844 L 195.003906 195.453125 C 194.945312 195.390625 194.945312 195.292969 195.003906 195.234375 L 195.683594 194.554688 C 195.714844 194.523438 195.75 194.507812 195.789062 194.507812 C 195.828125 194.507812 195.867188 194.527344 195.902344 194.554688 L 197.039062 195.695312 C 197.101562 195.753906 197.101562 195.855469 197.042969 195.914062 Z M 195.148438 197.808594 L 194.46875 198.488281 C 194.4375 198.515625 194.398438 198.53125 194.363281 198.53125 C 194.320312 198.53125 194.28125 198.515625 194.25 198.484375 L 193.109375 197.347656 C 193.046875 197.285156 193.046875 197.1875 193.109375 197.128906 L 193.789062 196.449219 C 193.816406 196.417969 193.855469 196.40625 193.894531 196.40625 C 193.933594 196.40625 193.976562 196.421875 194.007812 196.453125 L 195.144531 197.589844 C 195.207031 197.648438 195.207031 197.75 195.148438 197.808594 Z M 193.253906 199.703125 L 192.574219 200.382812 C 192.542969 200.410156 192.507812 200.425781 192.464844 200.425781 C 192.425781 200.425781 192.386719 200.410156 192.355469 200.378906 L 191.214844 199.242188 C 191.15625 199.179688 191.15625 199.082031 191.214844 199.023438 L 191.894531 198.34375 C 191.910156 198.324219 191.933594 198.3125 191.957031 198.308594 C 191.972656 198.300781 191.988281 198.300781 192 198.300781 C 192.039062 198.300781 192.082031 198.3125 192.113281 198.347656 L 193.25 199.484375 C 193.3125 199.542969 193.3125 199.644531 193.253906 199.703125 Z M 190.492188 197.710938 L 187.753906 194.972656 L 185.125 192.347656 C 184.855469 192.078125 184.855469 191.640625 185.125 191.371094 L 186.597656 189.898438 L 189.898438 186.601562 L 193.582031 182.914062 L 193.714844 182.785156 C 193.847656 182.648438 194.027344 182.582031 194.203125 182.582031 C 194.378906 182.582031 194.554688 182.648438 194.691406 182.785156 L 197.992188 186.085938 L 200.050781 188.148438 C 200.320312 188.417969 200.320312 188.855469 200.050781 189.125 L 191.464844 197.710938 C 191.332031 197.84375 191.15625 197.910156 190.976562 197.910156 C 190.800781 197.910156 190.625 197.84375 190.492188 197.710938 Z M 184.351562 188.585938 C 184.289062 188.527344 184.289062 188.429688 184.351562 188.367188 L 185.03125 187.6875 C 185.058594 187.660156 185.097656 187.644531 185.136719 187.644531 C 185.175781 187.644531 185.214844 187.660156 185.246094 187.691406 L 186.386719 188.832031 C 186.445312 188.890625 186.449219 188.992188 186.390625 189.050781 L 185.917969 189.519531 L 185.707031 189.730469 C 185.679688 189.757812 185.640625 189.773438 185.601562 189.773438 C 185.5625 189.773438 185.519531 189.757812 185.488281 189.726562 Z M 184.496094 190.945312 L 183.8125 191.625 C 183.785156 191.652344 183.746094 191.667969 183.707031 191.667969 C 183.667969 191.667969 183.625 191.652344 183.59375 191.621094 L 182.457031 190.480469 C 182.394531 190.421875 182.394531 190.324219 182.453125 190.261719 L 183.136719 189.582031 C 183.164062 189.554688 183.203125 189.539062 183.242188 189.539062 C 183.28125 189.539062 183.320312 189.554688 183.351562 189.585938 L 184.492188 190.722656 C 184.550781 190.785156 184.554688 190.882812 184.496094 190.945312 Z M 186.242188 186.472656 L 186.921875 185.796875 C 186.953125 185.765625 186.992188 185.75 187.03125 185.75 C 187.070312 185.75 187.109375 185.765625 187.140625 185.796875 L 188.28125 186.9375 C 188.339844 186.996094 188.34375 187.097656 188.28125 187.152344 L 187.601562 187.835938 C 187.574219 187.863281 187.535156 187.878906 187.496094 187.878906 C 187.457031 187.878906 187.414062 187.863281 187.382812 187.832031 L 186.246094 186.691406 C 186.183594 186.632812 186.183594 186.535156 186.242188 186.472656 Z M 188.136719 184.582031 L 188.816406 183.902344 C 188.847656 183.871094 188.886719 183.855469 188.925781 183.855469 C 188.964844 183.855469 189.003906 183.871094 189.035156 183.902344 L 190.171875 185.042969 C 190.234375 185.101562 190.238281 185.199219 190.175781 185.257812 L 189.515625 185.917969 L 189.496094 185.941406 C 189.46875 185.96875 189.429688 185.984375 189.390625 185.984375 C 189.351562 185.984375 189.308594 185.96875 189.277344 185.9375 L 188.140625 184.800781 C 188.078125 184.738281 188.078125 184.640625 188.136719 184.582031 Z M 190.03125 182.6875 L 190.710938 182.007812 C 190.742188 181.976562 190.78125 181.960938 190.820312 181.960938 C 190.859375 181.960938 190.898438 181.976562 190.929688 182.007812 L 192.070312 183.144531 C 192.128906 183.207031 192.132812 183.304688 192.070312 183.367188 L 191.390625 184.046875 C 191.363281 184.074219 191.324219 184.089844 191.285156 184.089844 C 191.246094 184.089844 191.203125 184.074219 191.171875 184.042969 L 190.03125 182.90625 C 189.972656 182.84375 189.972656 182.746094 190.03125 182.6875 Z M 191.925781 180.789062 L 192.605469 180.113281 C 192.636719 180.082031 192.675781 180.066406 192.714844 180.066406 C 192.753906 180.066406 192.792969 180.082031 192.824219 180.113281 L 193.402344 180.691406 L 193.964844 181.25 C 194.023438 181.3125 194.027344 181.410156 193.964844 181.472656 L 193.285156 182.152344 C 193.257812 182.183594 193.21875 182.195312 193.179688 182.195312 C 193.136719 182.195312 193.097656 182.179688 193.066406 182.148438 L 191.925781 181.011719 C 191.867188 180.949219 191.863281 180.851562 191.925781 180.789062 Z M 204.273438 188.679688 L 203.941406 189.015625 C 203.910156 189.046875 203.871094 189.058594 203.832031 189.058594 C 203.792969 189.058594 203.75 189.046875 203.71875 189.011719 L 202.582031 187.875 C 202.519531 187.8125 202.523438 187.714844 202.578125 187.65625 L 202.914062 187.320312 L 202.382812 186.792969 L 201.589844 187.585938 C 201.457031 187.71875 201.28125 187.789062 201.101562 187.789062 C 200.925781 187.789062 200.75 187.71875 200.613281 187.585938 L 195.25 182.222656 C 194.984375 181.953125 194.984375 181.515625 195.25 181.246094 L 196.046875 180.453125 L 195.515625 179.921875 L 195.179688 180.257812 C 195.152344 180.285156 195.113281 180.300781 195.074219 180.300781 C 195.03125 180.300781 194.992188 180.285156 194.960938 180.253906 L 193.914062 179.207031 L 193.820312 179.117188 C 193.761719 179.054688 193.761719 178.957031 193.820312 178.894531 L 194.15625 178.5625 L 193.796875 178.203125 L 187.019531 184.976562 L 184.976562 187.019531 L 180.546875 191.453125 L 180.90625 191.8125 L 181.238281 191.476562 C 181.269531 191.449219 181.308594 191.433594 181.347656 191.433594 C 181.386719 191.433594 181.429688 191.449219 181.457031 191.480469 L 182.597656 192.617188 C 182.660156 192.679688 182.660156 192.777344 182.601562 192.839844 L 182.265625 193.171875 L 182.792969 193.703125 L 183.589844 192.910156 C 183.722656 192.773438 183.898438 192.707031 184.074219 192.707031 C 184.253906 192.707031 184.429688 192.773438 184.566406 192.910156 L 189.929688 198.273438 C 190.195312 198.542969 190.195312 198.980469 189.929688 199.25 L 189.132812 200.042969 L 189.664062 200.570312 L 190 200.238281 C 190.027344 200.207031 190.066406 200.195312 190.105469 200.195312 C 190.148438 200.195312 190.1875 200.207031 190.214844 200.242188 L 191.355469 201.375 C 191.417969 201.4375 191.417969 201.539062 191.359375 201.597656 L 191.023438 201.933594 L 191.382812 202.292969 L 204.632812 189.042969 L 204.273438 188.679688 " fill-opacity="1" fill-rule="nonzero"/></svg>